<svg width="34" height="30" viewBox="0 0 34 30" fill="none" xmlns="http://www.w3.org/2000/svg">
<mask id="path-1-inside-1_303_1478" fill="white">
<path d="M21.3114 14.6447C21.0706 14.6447 20.847 14.5785 20.6484 14.472V14.4748C20.6484 14.8537 20.5012 15.2094 20.234 15.4759C19.9669 15.7431 19.6114 15.8903 19.233 15.8903C18.9886 15.8903 18.7622 15.8225 18.5615 15.7131C18.5412 16.0597 18.4027 16.3837 18.1556 16.6311C17.8884 16.8982 17.5329 17.0455 17.1542 17.0455C16.4019 17.0455 15.791 16.4541 15.747 15.7129C15.5142 15.8387 15.2511 15.9047 14.9796 15.8873C14.2396 15.8387 13.6601 15.1993 13.6601 14.4312V8.06459L12.9351 9.32055C12.659 9.80093 12.1421 10.0992 11.5856 10.0992C11.3144 10.0992 11.0465 10.028 10.8093 9.8921C10.5139 9.72083 10.3025 9.44588 10.2146 9.11696C10.1263 8.78783 10.172 8.44362 10.3428 8.14863C10.343 8.14863 12.7148 4.04143 12.8595 3.78914C12.8767 3.75121 12.9257 3.64119 12.9674 3.54742C13.0072 3.45789 13.0414 3.36601 13.0741 3.27365C13.7894 1.25437 15.5604 4.19617e-05 17.6963 4.19617e-05C20.47 4.19617e-05 22.7266 2.44694 22.7266 5.45463L22.7268 13.229C22.7268 13.6074 22.5798 13.9629 22.3129 14.2303C22.0457 14.4975 21.6902 14.6447 21.3114 14.6447L21.3114 14.6447ZM17.6964 0.752184C15.861 0.752184 14.3982 1.78885 13.7831 3.5252C13.7437 3.63546 13.7027 3.74572 13.6549 3.85315C13.5161 4.16438 13.5161 4.16438 13.477 4.20914L13.4718 4.20466C13.2782 4.57007 12.7029 5.56641 10.9941 8.52506C10.9239 8.6464 10.9052 8.78729 10.9411 8.92204C10.9773 9.05681 11.0643 9.17037 11.1847 9.23986C11.5583 9.45449 12.0701 9.31596 12.283 8.9449L13.7105 6.47345C13.7958 6.3262 13.9683 6.25387 14.1337 6.29864C14.2981 6.3427 14.4124 6.49183 14.4124 6.66193V14.4315C14.4124 14.798 14.689 15.1144 15.0289 15.1368C15.225 15.1472 15.4078 15.0815 15.5451 14.9443C15.67 14.8195 15.7388 14.6531 15.7388 14.4753V9.39389C15.7388 9.18609 15.9073 9.01763 16.115 9.01763C16.3228 9.01763 16.4913 9.18585 16.4913 9.39389L16.4911 15.6303C16.4911 15.9959 16.7886 16.2935 17.1543 16.2935C17.3319 16.2935 17.4987 16.2247 17.6238 16.0998C17.7487 15.9747 17.8175 15.8079 17.8175 15.6303V9.39388C17.8175 9.18608 17.9857 9.01763 18.1937 9.01763C18.4015 9.01763 18.57 9.18585 18.57 9.39388L18.5697 14.4168V14.4752C18.5697 14.8407 18.8673 15.1382 19.2332 15.1382C19.4106 15.1382 19.5769 15.0692 19.7027 14.9438C19.8276 14.8192 19.8964 14.6529 19.8964 14.475V9.39362C19.8964 9.18582 20.0646 9.01737 20.2726 9.01737C20.4804 9.01737 20.6489 9.18559 20.6489 9.39362L20.6484 13.2292C20.6484 13.595 20.946 13.8926 21.3114 13.8926C21.4893 13.8926 21.6556 13.8236 21.7805 13.699C21.9058 13.5736 21.9744 13.4068 21.9744 13.2292L21.9746 5.45481C21.9746 2.86207 20.0554 0.752262 17.6963 0.752262L17.6964 0.752184Z"/>
</mask>
<path d="M21.3114 14.6447C21.0706 14.6447 20.847 14.5785 20.6484 14.472V14.4748C20.6484 14.8537 20.5012 15.2094 20.234 15.4759C19.9669 15.7431 19.6114 15.8903 19.233 15.8903C18.9886 15.8903 18.7622 15.8225 18.5615 15.7131C18.5412 16.0597 18.4027 16.3837 18.1556 16.6311C17.8884 16.8982 17.5329 17.0455 17.1542 17.0455C16.4019 17.0455 15.791 16.4541 15.747 15.7129C15.5142 15.8387 15.2511 15.9047 14.9796 15.8873C14.2396 15.8387 13.6601 15.1993 13.6601 14.4312V8.06459L12.9351 9.32055C12.659 9.80093 12.1421 10.0992 11.5856 10.0992C11.3144 10.0992 11.0465 10.028 10.8093 9.8921C10.5139 9.72083 10.3025 9.44588 10.2146 9.11696C10.1263 8.78783 10.172 8.44362 10.3428 8.14863C10.343 8.14863 12.7148 4.04143 12.8595 3.78914C12.8767 3.75121 12.9257 3.64119 12.9674 3.54742C13.0072 3.45789 13.0414 3.36601 13.0741 3.27365C13.7894 1.25437 15.5604 4.19617e-05 17.6963 4.19617e-05C20.47 4.19617e-05 22.7266 2.44694 22.7266 5.45463L22.7268 13.229C22.7268 13.6074 22.5798 13.9629 22.3129 14.2303C22.0457 14.4975 21.6902 14.6447 21.3114 14.6447L21.3114 14.6447ZM17.6964 0.752184C15.861 0.752184 14.3982 1.78885 13.7831 3.5252C13.7437 3.63546 13.7027 3.74572 13.6549 3.85315C13.5161 4.16438 13.5161 4.16438 13.477 4.20914L13.4718 4.20466C13.2782 4.57007 12.7029 5.56641 10.9941 8.52506C10.9239 8.6464 10.9052 8.78729 10.9411 8.92204C10.9773 9.05681 11.0643 9.17037 11.1847 9.23986C11.5583 9.45449 12.0701 9.31596 12.283 8.9449L13.7105 6.47345C13.7958 6.3262 13.9683 6.25387 14.1337 6.29864C14.2981 6.3427 14.4124 6.49183 14.4124 6.66193V14.4315C14.4124 14.798 14.689 15.1144 15.0289 15.1368C15.225 15.1472 15.4078 15.0815 15.5451 14.9443C15.67 14.8195 15.7388 14.6531 15.7388 14.4753V9.39389C15.7388 9.18609 15.9073 9.01763 16.115 9.01763C16.3228 9.01763 16.4913 9.18585 16.4913 9.39389L16.4911 15.6303C16.4911 15.9959 16.7886 16.2935 17.1543 16.2935C17.3319 16.2935 17.4987 16.2247 17.6238 16.0998C17.7487 15.9747 17.8175 15.8079 17.8175 15.6303V9.39388C17.8175 9.18608 17.9857 9.01763 18.1937 9.01763C18.4015 9.01763 18.57 9.18585 18.57 9.39388L18.5697 14.4168V14.4752C18.5697 14.8407 18.8673 15.1382 19.2332 15.1382C19.4106 15.1382 19.5769 15.0692 19.7027 14.9438C19.8276 14.8192 19.8964 14.6529 19.8964 14.475V9.39362C19.8964 9.18582 20.0646 9.01737 20.2726 9.01737C20.4804 9.01737 20.6489 9.18559 20.6489 9.39362L20.6484 13.2292C20.6484 13.595 20.946 13.8926 21.3114 13.8926C21.4893 13.8926 21.6556 13.8236 21.7805 13.699C21.9058 13.5736 21.9744 13.4068 21.9744 13.2292L21.9746 5.45481C21.9746 2.86207 20.0554 0.752262 17.6963 0.752262L17.6964 0.752184Z" fill="#4CAF4F"/>
<path d="M21.3114 14.6447V13.3114H26.0221L22.0102 15.7802L21.3114 14.6447ZM20.6484 14.472H19.3151V12.2442L21.2785 13.2969L20.6484 14.472ZM20.234 15.4759L19.2912 14.5331L19.2925 14.5318L20.234 15.4759ZM18.5615 15.7131L17.2304 15.6353L17.3531 13.5369L19.1992 14.5422L18.5615 15.7131ZM18.1556 16.6311L19.0989 17.5734L19.0984 17.5739L18.1556 16.6311ZM15.747 15.7129L15.113 14.5399L16.9539 13.545L17.078 15.6339L15.747 15.7129ZM14.9796 15.8873L14.8942 17.2178L14.8924 17.2177L14.9796 15.8873ZM13.6601 8.06459L12.5053 7.39804L14.9934 3.08754V8.06459H13.6601ZM12.9351 9.32055L11.7791 8.6561L11.7803 8.654L12.9351 9.32055ZM10.8093 9.8921L10.1464 11.049L10.1406 11.0456L10.8093 9.8921ZM10.2146 9.11696L11.5024 8.77129L11.5028 8.77279L10.2146 9.11696ZM10.3428 8.14863L9.18895 7.48051L9.57413 6.8153H10.3428V8.14863ZM12.8595 3.78914L14.0738 4.33975L14.0477 4.39748L14.0161 4.45248L12.8595 3.78914ZM12.9674 3.54742L11.7491 3.00563L11.7491 3.00561L12.9674 3.54742ZM13.0741 3.27365L14.3309 3.71883L14.3308 3.7192L13.0741 3.27365ZM22.7266 5.45463L21.3932 5.45467V5.45463H22.7266ZM22.7268 13.229L24.0601 13.2289V13.229H22.7268ZM22.3129 14.2303L23.2565 15.1722L23.2557 15.1731L22.3129 14.2303ZM21.3114 14.6447V15.9781H16.6006L20.6126 13.5092L21.3114 14.6447ZM17.6964 0.752184V-0.581148H19.464L18.9784 1.11848L17.6964 0.752184ZM13.7831 3.5252L15.0399 3.97044L15.0388 3.97331L13.7831 3.5252ZM13.6549 3.85315L14.873 4.39542L14.8727 4.39612L13.6549 3.85315ZM13.477 4.20914L14.4811 5.08642L13.6088 6.08472L12.6055 5.21823L13.477 4.20914ZM13.4718 4.20466L12.2937 3.58029L13.0772 2.10205L14.3433 3.19556L13.4718 4.20466ZM10.9941 8.52506L12.1487 9.19191L12.1481 9.19287L10.9941 8.52506ZM10.9411 8.92204L9.65356 9.26867L9.65245 9.2645L10.9411 8.92204ZM11.1847 9.23986L10.5206 10.396L10.5181 10.3946L11.1847 9.23986ZM12.283 8.9449L11.1266 8.2812L11.1284 8.27802L12.283 8.9449ZM13.7105 6.47345L12.5559 5.80657L12.5568 5.80517L13.7105 6.47345ZM14.1337 6.29864L13.7886 7.58656L13.7853 7.58566L14.1337 6.29864ZM15.0289 15.1368L14.9585 16.4683L14.9499 16.4678L14.9414 16.4673L15.0289 15.1368ZM15.5451 14.9443L16.4879 15.8871L16.4871 15.888L15.5451 14.9443ZM16.4913 9.39389H17.8246V9.39394L16.4913 9.39389ZM16.4911 15.6303H15.1577V15.6302L16.4911 15.6303ZM17.6238 16.0998L18.5675 17.0417L18.5657 17.0435L17.6238 16.0998ZM18.57 9.39388H19.9033V9.39394L18.57 9.39388ZM18.5697 14.4168H17.2364V14.4168L18.5697 14.4168ZM19.7027 14.9438L20.6447 15.8875L20.6438 15.8884L19.7027 14.9438ZM20.6489 9.39362H21.9822V9.39378L20.6489 9.39362ZM20.6484 13.2292H19.3151V13.229L20.6484 13.2292ZM21.7805 13.699L22.7233 14.6418L22.7224 14.6426L21.7805 13.699ZM21.9744 13.2292H20.641V13.2291L21.9744 13.2292ZM21.9746 5.45481H23.3079V5.45485L21.9746 5.45481ZM17.6963 0.752262V2.0856H15.9287L16.4143 0.385967L17.6963 0.752262ZM21.3114 14.6447V15.978C20.8204 15.978 20.3821 15.8421 20.0184 15.6471L20.6484 14.472L21.2785 13.2969C21.2957 13.3062 21.3067 13.3097 21.311 13.3109C21.3148 13.3119 21.3143 13.3114 21.3114 13.3114V14.6447ZM20.6484 14.472H21.9818V14.4748H20.6484H19.3151V14.472H20.6484ZM20.6484 14.4748H21.9818C21.9818 15.2062 21.6948 15.9021 21.1756 16.42L20.234 15.4759L19.2925 14.5318C19.302 14.5223 19.3067 14.5142 19.3095 14.5075C19.3122 14.5009 19.3151 14.4906 19.3151 14.4748H20.6484ZM20.234 15.4759L21.1768 16.4187C20.6594 16.9361 19.9647 17.2237 19.233 17.2237V15.8903V14.557C19.2482 14.557 19.2583 14.5542 19.2652 14.5514C19.272 14.5486 19.2808 14.5435 19.2912 14.5331L20.234 15.4759ZM19.233 15.8903V17.2237C18.7356 17.2237 18.2918 17.0845 17.9238 16.8841L18.5615 15.7131L19.1992 14.5422C19.2165 14.5516 19.2275 14.5552 19.2319 14.5564C19.2356 14.5574 19.2353 14.557 19.233 14.557V15.8903ZM18.5615 15.7131L19.8925 15.791C19.8542 16.4473 19.5879 17.0838 19.0989 17.5734L18.1556 16.6311L17.2122 15.6887C17.2172 15.6838 17.2201 15.6794 17.2225 15.6739C17.2251 15.6679 17.2292 15.6557 17.2304 15.6353L18.5615 15.7131ZM18.1556 16.6311L19.0984 17.5739C18.5808 18.0914 17.8861 18.3788 17.1542 18.3788V17.0455V15.7121C17.1697 15.7121 17.1799 15.7093 17.1867 15.7065C17.1935 15.7037 17.2023 15.6987 17.2127 15.6882L18.1556 16.6311ZM17.1542 17.0455V18.3788C15.6822 18.3788 14.5011 17.2235 14.416 15.792L15.747 15.7129L17.078 15.6339C17.0793 15.6565 17.0886 15.6764 17.105 15.6921C17.113 15.6997 17.1212 15.7046 17.1282 15.7075C17.1344 15.7101 17.1423 15.7121 17.1542 15.7121V17.0455ZM15.747 15.7129L16.381 16.8859C15.9503 17.1187 15.4397 17.2529 14.8942 17.2178L14.9796 15.8873L15.0651 14.5567C15.0651 14.5567 15.068 14.5569 15.075 14.5553C15.0825 14.5536 15.0956 14.5494 15.113 14.5399L15.747 15.7129ZM14.9796 15.8873L14.8924 17.2177C13.412 17.1206 12.3267 15.8617 12.3267 14.4312H13.6601H14.9934C14.9934 14.4763 15.0098 14.511 15.0303 14.5337C15.0503 14.5557 15.0638 14.5566 15.0669 14.5568L14.9796 15.8873ZM13.6601 14.4312H12.3267V8.06459H13.6601H14.9934V14.4312H13.6601ZM13.6601 8.06459L14.8148 8.73114L14.0899 9.9871L12.9351 9.32055L11.7803 8.654L12.5053 7.39804L13.6601 8.06459ZM12.9351 9.32055L14.0911 9.985C13.5759 10.8813 12.6169 11.4325 11.5856 11.4325V10.0992V8.76586C11.6673 8.76586 11.7421 8.72052 11.7791 8.6561L12.9351 9.32055ZM11.5856 10.0992V11.4325C11.0814 11.4325 10.585 11.3003 10.1464 11.049L10.8093 9.8921L11.4722 8.73523C11.508 8.75578 11.5475 8.76586 11.5856 8.76586V10.0992ZM10.8093 9.8921L10.1406 11.0456C9.54194 10.6986 9.10622 10.1338 8.9265 9.46113L10.2146 9.11696L11.5028 8.77279C11.5016 8.76824 11.4983 8.76019 11.4918 8.75182C11.4855 8.74352 11.4796 8.73948 11.478 8.7386L10.8093 9.8921ZM10.2146 9.11696L8.9269 9.46262C8.74648 8.79047 8.84094 8.08155 9.18895 7.48051L10.3428 8.14863L11.4967 8.81675C11.4986 8.81347 11.5019 8.80587 11.5033 8.79509C11.5048 8.78428 11.5036 8.77566 11.5024 8.77129L10.2146 9.11696ZM10.3428 8.14863V6.8153C9.68877 6.98674 9.19921 7.46311 9.19555 7.46925C9.19433 7.47131 9.19252 7.47439 9.19194 7.47538C9.19161 7.47595 9.19104 7.47692 9.19085 7.47725C9.19073 7.47746 9.19049 7.47787 9.19043 7.47797C9.19024 7.4783 9.1903 7.4782 9.1908 7.47733C9.19171 7.47577 9.19323 7.47314 9.19544 7.46931C9.19982 7.46174 9.2064 7.45036 9.21509 7.43532C9.23245 7.40528 9.25796 7.36112 9.29053 7.30474C9.35566 7.19199 9.44886 7.03062 9.56118 6.83614C9.7858 6.44719 10.0868 5.92594 10.3923 5.39681C11.0043 4.33677 11.6318 3.24973 11.7029 3.12581L12.8595 3.78914L14.0161 4.45248C13.9425 4.58084 13.3117 5.67355 12.7017 6.73018C12.3961 7.25939 12.0951 7.78071 11.8704 8.16974C11.7581 8.36425 11.6648 8.52572 11.5996 8.63858C11.567 8.695 11.5414 8.73932 11.524 8.76957C11.5152 8.78468 11.5085 8.79639 11.5038 8.80437C11.5016 8.80832 11.4997 8.81159 11.4983 8.81398C11.4976 8.81508 11.4968 8.81647 11.4961 8.81779C11.4958 8.81828 11.4949 8.81975 11.4939 8.82151C11.4933 8.82262 11.4914 8.8258 11.4901 8.82792C11.4864 8.83412 10.9969 9.31053 10.3428 9.48197V8.14863ZM12.8595 3.78914L11.6452 3.23854C11.6598 3.20617 11.7063 3.10181 11.7491 3.00563L12.9674 3.54742L14.1857 4.08922C14.1451 4.18058 14.0936 4.29625 14.0738 4.33975L12.8595 3.78914ZM12.9674 3.54742L11.7491 3.00561C11.7676 2.96394 11.7882 2.9107 11.8174 2.82811L13.0741 3.27365L14.3308 3.7192C14.2946 3.82133 14.2468 3.95184 14.1857 4.08923L12.9674 3.54742ZM13.0741 3.27365L11.8173 2.82848C12.7204 0.278996 14.9934 -1.33329 17.6963 -1.33329V4.19617e-05V1.33337C16.1274 1.33337 14.8584 2.22975 14.3309 3.71883L13.0741 3.27365ZM17.6963 4.19617e-05V-1.33329C21.306 -1.33329 24.0599 1.81429 24.0599 5.45463H22.7266H21.3932C21.3932 3.07959 19.634 1.33337 17.6963 1.33337V4.19617e-05ZM22.7266 5.45463L24.0599 5.45459L24.0601 13.2289L22.7268 13.229L21.3935 13.229L21.3932 5.45467L22.7266 5.45463ZM22.7268 13.229H24.0601C24.0601 13.9602 23.7733 14.6546 23.2565 15.1722L22.3129 14.2303L21.3692 13.2884C21.3797 13.2778 21.3849 13.2688 21.3877 13.2618C21.3906 13.2548 21.3935 13.2445 21.3935 13.229H22.7268ZM22.3129 14.2303L23.2557 15.1731C22.7381 15.6907 22.0433 15.9781 21.3114 15.9781V14.6447V13.3114C21.327 13.3114 21.3373 13.3085 21.3441 13.3057C21.3509 13.3029 21.3596 13.2979 21.37 13.2875L22.3129 14.2303ZM21.3114 14.6447L20.6126 13.5092L20.6126 13.5091L21.3114 14.6447L22.0102 15.7802L22.0102 15.7803L21.3114 14.6447ZM17.6964 0.752184V2.08552C16.4287 2.08552 15.4674 2.76367 15.0399 3.97044L13.7831 3.5252L12.5263 3.07996C13.329 0.81402 15.2934 -0.581148 17.6964 -0.581148V0.752184ZM13.7831 3.5252L15.0388 3.97331C14.9968 4.09126 14.9421 4.24021 14.873 4.39542L13.6549 3.85315L12.4368 3.31088C12.4634 3.25121 12.4907 3.17966 12.5273 3.07709L13.7831 3.5252ZM13.6549 3.85315L14.8727 4.39612C14.8116 4.53306 14.7605 4.64871 14.7213 4.72705C14.697 4.77567 14.6577 4.8506 14.6007 4.93359C14.5429 5.01768 14.4857 5.08111 14.4811 5.08642L13.477 4.20914L12.473 3.33185C12.4761 3.32827 12.4751 3.32943 12.4735 3.33126C12.4715 3.33363 12.4663 3.33967 12.4595 3.34796C12.4524 3.35654 12.4436 3.36763 12.4336 3.38082C12.4235 3.39412 12.4132 3.40827 12.403 3.4232C12.3821 3.4536 12.366 3.48022 12.3546 3.50035C12.3439 3.51915 12.3373 3.53216 12.3359 3.53509C12.3344 3.53812 12.3353 3.53634 12.3398 3.52664C12.3442 3.51723 12.3504 3.5037 12.3594 3.48399C12.3682 3.46446 12.3788 3.44087 12.3918 3.41172C12.4048 3.38262 12.4197 3.34927 12.4371 3.31018L13.6549 3.85315ZM13.477 4.20914L12.6055 5.21823L12.6004 5.21376L13.4718 4.20466L14.3433 3.19556L14.3485 3.20004L13.477 4.20914ZM13.4718 4.20466L14.65 4.82903C14.4413 5.22278 13.8455 6.25389 12.1487 9.19191L10.9941 8.52506L9.83947 7.85822C11.5602 4.87892 12.1151 3.91737 12.2937 3.58029L13.4718 4.20466ZM10.9941 8.52506L12.1481 9.19287C12.2548 9.0085 12.2845 8.78605 12.2297 8.57958L10.9411 8.92204L9.65245 9.2645C9.52595 8.78852 9.59291 8.28429 9.84002 7.85726L10.9941 8.52506ZM10.9411 8.92204L12.2285 8.57542C12.1737 8.37163 12.0388 8.1934 11.8513 8.08513L11.1847 9.23986L10.5181 10.3946C10.0897 10.1473 9.781 9.74199 9.65357 9.26867L10.9411 8.92204ZM11.1847 9.23986L11.8488 8.08369C11.697 7.99651 11.5494 7.99709 11.4475 8.02453C11.3459 8.05187 11.2157 8.12592 11.1266 8.2812L12.283 8.9449L13.4394 9.6086C12.8583 10.6211 11.5303 10.976 10.5206 10.396L11.1847 9.23986ZM12.283 8.9449L11.1284 8.27802L12.5559 5.80657L13.7105 6.47345L14.8651 7.14033L13.4376 9.61177L12.283 8.9449ZM13.7105 6.47345L12.5568 5.80517C12.9419 5.14027 13.7279 4.80752 14.482 5.01161L14.1337 6.29864L13.7853 7.58566C14.2086 7.70022 14.6497 7.51213 14.8643 7.14173L13.7105 6.47345ZM14.1337 6.29864L14.4787 5.01072C15.2267 5.21112 15.7457 5.88899 15.7457 6.66193H14.4124H13.079C13.079 7.09467 13.3695 7.47427 13.7886 7.58655L14.1337 6.29864ZM14.4124 6.66193H15.7457V14.4315H14.4124H13.079V6.66193H14.4124ZM14.4124 14.4315H15.7457C15.7457 14.2795 15.6894 14.1414 15.597 14.0357C15.5048 13.9302 15.342 13.8212 15.1165 13.8064L15.0289 15.1368L14.9414 16.4673C13.819 16.3934 13.079 15.4157 13.079 14.4315H14.4124ZM15.0289 15.1368L15.0994 13.8053C14.9418 13.797 14.7494 13.8547 14.6032 14.0007L15.5451 14.9443L16.4871 15.888C16.0662 16.3082 15.5081 16.4974 14.9585 16.4683L15.0289 15.1368ZM15.5451 14.9443L14.6023 14.0015C14.4758 14.1281 14.4055 14.3014 14.4055 14.4753H15.7388H17.0721C17.0721 15.0048 16.8642 15.5109 16.4879 15.8871L15.5451 14.9443ZM15.7388 14.4753H14.4055V9.39389H15.7388H17.0721V14.4753H15.7388ZM15.7388 9.39389H14.4055C14.4055 8.44971 15.1709 7.6843 16.115 7.6843V9.01763V10.351C16.6436 10.351 17.0721 9.92247 17.0721 9.39389H15.7388ZM16.115 9.01763V7.6843C17.0587 7.6843 17.8246 8.44894 17.8246 9.39389H16.4913H15.158C15.158 9.92277 15.587 10.351 16.115 10.351V9.01763ZM16.4913 9.39389L17.8246 9.39394L17.8244 15.6303L16.4911 15.6303L15.1577 15.6302L15.158 9.39384L16.4913 9.39389ZM16.4911 15.6303H17.8244C17.8244 15.2595 17.525 14.9601 17.1543 14.9601V16.2935V17.6268C16.0523 17.6268 15.1577 16.7323 15.1577 15.6303H16.4911ZM17.1543 16.2935V14.9601C16.9807 14.9601 16.8082 15.03 16.6819 15.1561L17.6238 16.0998L18.5657 17.0435C18.1892 17.4193 17.6831 17.6268 17.1543 17.6268V16.2935ZM17.6238 16.0998L16.6801 15.1579C16.5541 15.2842 16.4841 15.4567 16.4841 15.6303H17.8175H19.1508C19.1508 16.1591 18.9433 16.6652 18.5675 17.0417L17.6238 16.0998ZM17.8175 15.6303H16.4841V9.39388H17.8175H19.1508V15.6303H17.8175ZM17.8175 9.39388H16.4841C16.4841 8.45026 17.2488 7.6843 18.1937 7.6843V9.01763V10.351C18.7226 10.351 19.1508 9.92191 19.1508 9.39388H17.8175ZM18.1937 9.01763V7.6843C19.1374 7.6843 19.9033 8.44893 19.9033 9.39388H18.57H17.2366C17.2366 9.92277 17.6657 10.351 18.1937 10.351V9.01763ZM18.57 9.39388L19.9033 9.39394L19.9031 14.4169L18.5697 14.4168L17.2364 14.4168L17.2366 9.39382L18.57 9.39388ZM18.5697 14.4168H19.9031V14.4752H18.5697H17.2364V14.4168H18.5697ZM18.5697 14.4752H19.9031C19.9031 14.1036 19.603 13.8049 19.2332 13.8049V15.1382V16.4715C18.1316 16.4715 17.2364 15.5777 17.2364 14.4752H18.5697ZM19.2332 15.1382V13.8049C19.056 13.8049 18.8845 13.8769 18.7617 13.9993L19.7027 14.9438L20.6438 15.8884C20.2694 16.2614 19.7652 16.4715 19.2332 16.4715V15.1382ZM19.7027 14.9438L18.7608 14.0001C18.6333 14.1274 18.5631 14.3014 18.5631 14.475H19.8964H21.2297C21.2297 15.0044 21.0219 15.511 20.6447 15.8875L19.7027 14.9438ZM19.8964 14.475H18.5631V9.39362H19.8964H21.2297V14.475H19.8964ZM19.8964 9.39362H18.5631C18.5631 8.44998 19.3277 7.68403 20.2726 7.68403V9.01737V10.3507C20.8015 10.3507 21.2297 9.92167 21.2297 9.39362H19.8964ZM20.2726 9.01737V7.68403C21.2163 7.68403 21.9822 8.44866 21.9822 9.39362H20.6489H19.3156C19.3156 9.92251 19.7446 10.3507 20.2726 10.3507V9.01737ZM20.6489 9.39362L21.9822 9.39378L21.9818 13.2293L20.6484 13.2292L19.3151 13.229L19.3156 9.39345L20.6489 9.39362ZM20.6484 13.2292H21.9818C21.9818 12.8593 21.683 12.5593 21.3114 12.5593V13.8926V15.2259C20.209 15.2259 19.3151 14.3308 19.3151 13.2292H20.6484ZM21.3114 13.8926V12.5593C21.1365 12.5593 20.9639 12.6301 20.8385 12.7553L21.7805 13.699L22.7224 14.6426C22.3472 15.0171 21.842 15.2259 21.3114 15.2259V13.8926ZM21.7805 13.699L20.8376 12.7561C20.7107 12.8831 20.641 13.0564 20.641 13.2292H21.9744H23.3077C23.3077 13.7572 23.1009 14.2641 22.7233 14.6418L21.7805 13.699ZM21.9744 13.2292L20.641 13.2291L20.6413 5.45477L21.9746 5.45481L23.3079 5.45485L23.3077 13.2292L21.9744 13.2292ZM21.9746 5.45481H20.6413C20.6413 3.47694 19.2031 2.0856 17.6963 2.0856V0.752262V-0.581072C20.9077 -0.581072 23.3079 2.24721 23.3079 5.45481H21.9746ZM17.6963 0.752262L16.4143 0.385967L16.4143 0.385889L17.6964 0.752184L18.9784 1.11848L18.9784 1.11856L17.6963 0.752262Z" fill="#4CAF4F" mask="url(#path-1-inside-1_303_1478)"/>
<path d="M4.96313 17.214L4.88794 17.1739C4.87043 17.2055 4.82049 17.294 4.74731 17.4259C4.77335 17.4389 4.79913 17.4511 4.82544 17.461C4.87033 17.3802 4.9165 17.298 4.96313 17.214Z" fill="#4CAF4F" stroke="#4CAF4F" stroke-width="1.33333"/>
<path d="M20.8259 19.0758L20.8279 19.0768C20.8303 19.0785 20.8322 19.0809 20.8347 19.0826C20.8316 19.0805 20.8289 19.0779 20.8259 19.0758Z" fill="#4CAF4F" stroke="#4CAF4F" stroke-width="1.33333"/>
</svg>
