<svg width="48" height="32" viewBox="0 0 48 32" fill="none" xmlns="http://www.w3.org/2000/svg">
<path d="M16.5 0.735931C18.8588 0.735931 21.1611 1.46172 23.0938 2.81406C25.026 4.16628 26.4956 6.07988 27.3037 8.2955C28.1118 10.5115 28.2196 12.9228 27.6113 15.2018C27.003 17.4806 25.7082 19.5173 23.9033 21.0357L23.2959 21.5475L24.0186 21.8746C26.9919 23.2201 29.5509 25.3372 31.4287 28.0064L31.4355 28.0162L31.4434 28.026C31.5892 28.2128 31.6954 28.4277 31.7559 28.6568C31.8012 28.8287 31.8206 29.0064 31.8125 29.1832L31.7949 29.36C31.7688 29.5359 31.7159 29.7064 31.6387 29.8658L31.5537 30.0211C31.4293 30.2229 31.2651 30.3973 31.0713 30.5338C30.9259 30.6361 30.7663 30.7161 30.5977 30.7701L30.4258 30.815C30.1939 30.864 29.9541 30.8662 29.7217 30.8199C29.4893 30.7736 29.2686 30.6796 29.0732 30.5455C28.878 30.4114 28.7116 30.2389 28.585 30.0387L28.5791 30.0289L28.5723 30.0191L28.3115 29.6598C27.0727 28.0035 25.4991 26.6265 23.6934 25.6178L23.3027 25.4068C21.2016 24.3147 18.868 23.7447 16.5 23.7447C14.132 23.7447 11.7984 24.3147 9.69727 25.4068C7.72749 26.4307 6.01588 27.8851 4.68848 29.6598L4.42871 30.0191L4.42773 30.0201C4.30779 30.1924 4.15755 30.3416 3.98535 30.4596L3.80566 30.567C3.61931 30.664 3.41743 30.726 3.20996 30.7506L3.00195 30.7623H2.99805C2.68414 30.7632 2.37683 30.6782 2.10938 30.5172L1.99707 30.443L1.99512 30.442L1.8584 30.3346C1.55464 30.0715 1.34865 29.7105 1.2793 29.3111C1.20008 28.8546 1.30599 28.3856 1.57227 28.0064L1.57129 28.0055C3.44908 25.3365 6.00835 23.22 8.98145 21.8746L9.7041 21.5475L9.09668 21.0357C7.29184 19.5173 5.99698 17.4806 5.38867 15.2018C4.8184 13.0652 4.87729 10.8126 5.55273 8.71347L5.69629 8.2955C6.45392 6.21823 7.79312 4.4064 9.5498 3.07382L9.90723 2.81406C11.8398 1.46174 14.1412 0.735953 16.5 0.735931ZM28.5381 0.699799L28.666 1.1832L28.6748 1.18124C29.5586 0.929642 30.4693 0.786976 31.3867 0.756439L31.7803 0.749603H31.7832C33.9957 0.743254 36.1597 1.37647 38.0166 2.56796L38.3838 2.81406C40.1988 4.07986 41.6068 5.84117 42.4424 7.88339L42.6016 8.2955C43.3601 10.3741 43.5008 12.6244 43.0117 14.776L42.9053 15.2047C42.294 17.4844 40.9954 19.5208 39.1855 21.0357L38.5752 21.5465L39.2998 21.8746C42.0872 23.136 44.5104 25.0755 46.3496 27.5123L46.71 28.0064L46.7119 28.0094C46.8454 28.196 46.9402 28.4077 46.9912 28.6314C47.0295 28.7992 47.0427 28.9712 47.0303 29.1422L47.0098 29.3131C46.9705 29.539 46.8861 29.7546 46.7627 29.9478C46.67 30.093 46.5565 30.2233 46.4258 30.3346L46.29 30.4391L46.2842 30.443C45.9922 30.6517 45.6421 30.7624 45.2832 30.7613C45.073 30.76 44.8655 30.7219 44.6699 30.648L44.4775 30.5631C44.2908 30.4658 44.1239 30.3356 43.9834 30.1803L43.8516 30.0172C42.4882 28.0832 40.681 26.5042 38.5811 25.4137C36.612 24.3912 34.4394 23.8263 32.2256 23.7574L31.7822 23.7496H31.7812C31.3752 23.7496 30.9833 23.6093 30.6719 23.3541L30.5439 23.2379C30.2158 22.9097 30.0312 22.4637 30.0312 21.9996C30.0313 21.5937 30.1727 21.2025 30.4277 20.8912L30.5439 20.7623C30.8721 20.4342 31.3172 20.2496 31.7812 20.2496C33.7703 20.2496 35.6829 19.509 37.1504 18.1803L37.4385 17.9068C38.9387 16.4066 39.7812 14.3713 39.7812 12.2496C39.7811 10.2606 39.0406 8.34789 37.7119 6.88046L37.4385 6.59335C35.9382 5.09306 33.903 4.2496 31.7812 4.2496C31.1414 4.24848 30.5042 4.32632 29.8838 4.48007L29.6191 4.55038L29.6133 4.55234C29.4467 4.60202 29.2738 4.62585 29.1006 4.6246L28.9268 4.61484C28.7535 4.59627 28.5844 4.55226 28.4248 4.48398L28.2695 4.40781C28.1171 4.32386 27.9782 4.21782 27.8574 4.09335L27.7422 3.96347C27.5979 3.78169 27.4916 3.57262 27.4287 3.34921C27.3815 3.18155 27.3593 3.00804 27.3633 2.83456L27.376 2.66171C27.3972 2.48885 27.4439 2.32017 27.5146 2.16171L27.5938 2.00742C27.7088 1.80588 27.8629 1.62932 28.0469 1.48788C28.2308 1.34652 28.4408 1.24259 28.665 1.1832L28.5381 0.699799ZM18.0605 4.4039C16.5088 4.09528 14.9002 4.25351 13.4385 4.85898C12.0681 5.42662 10.8845 6.36332 10.0176 7.5621L9.84863 7.80527C8.96966 9.12075 8.50008 10.6675 8.5 12.2496C8.5 14.3712 9.34264 16.4066 10.8428 17.9068C12.343 19.4071 14.3783 20.2496 16.5 20.2496C17.9833 20.2496 19.4356 19.8379 20.6953 19.0621L20.9443 18.9019C22.2599 18.0229 23.2861 16.7729 23.8916 15.3111C24.4591 13.9408 24.6331 12.4416 24.3984 10.981L24.3467 10.6891C24.0572 9.23415 23.3691 7.89041 22.3623 6.80624L22.1572 6.59335C21.1084 5.54456 19.7898 4.80957 18.3506 4.46738L18.0605 4.4039Z" fill="#4CAF4F" stroke="#4CAF4F"/>
</svg>
